<?xml version="1.0" encoding="utf-8"?>
<!-- Generator: Adobe Illustrator 16.0.0, SVG Export Plug-In . SVG Version: 6.00 Build 0)  -->
<!DOCTYPE svg PUBLIC "-//W3C//DTD SVG 1.1//EN" "http://www.w3.org/Graphics/SVG/1.1/DTD/svg11.dtd">
<svg version="1.1" id="Layer_1" xmlns="http://www.w3.org/2000/svg" xmlns:xlink="http://www.w3.org/1999/xlink" x="0px" y="0px"
	 width="400px" height="300px" viewBox="0 0 400 300" enable-background="new 0 0 400 300" xml:space="preserve">
<rect fill="#669900" width="400" height="300"/>
<g>
	<path fill="#F1F2F2" stroke="#F1F2F2" stroke-miterlimit="10" d="M171.2,146.418c7.371,0,13.366-4.803,13.366-10.707
		c0-5.907-5.996-10.711-13.366-10.711c-7.37,0-13.365,4.804-13.365,10.709C157.834,141.615,163.83,146.418,171.2,146.418z
		 M171.2,128.846c4.723,0,8.566,3.081,8.566,6.863c0,3.783-3.843,6.863-8.566,6.863c-4.723,0-8.565-3.079-8.565-6.861
		C162.635,131.929,166.477,128.846,171.2,128.846z"/>
	<path fill="#F1F2F2" stroke="#F1F2F2" stroke-miterlimit="10" d="M140,100v76.922V200h120v-23.078V100H140z M144.8,103.846h110.399
		v51.398l-24.777-18.201c-0.47-0.344-1.089-0.515-1.729-0.504c-0.635,0.023-1.234,0.249-1.664,0.625l-23.506,20.628l-11.383-9.12
		c-0.898-0.718-2.333-0.754-3.284-0.085l-40.164,28.334H144.8V103.846z M255.199,196.154H144.8V180.77h110.399V196.154z
		 M155.958,176.922l34.378-24.252l24.725,19.811c0.938,0.752,2.455,0.752,3.394,0s0.938-1.967,0-2.719l-11.537-9.244l22.035-19.334
		l26.248,19.279v16.461L155.958,176.922L155.958,176.922z"/>
</g>
</svg>
