<?xml version="1.0" encoding="utf-8"?>
<!-- Generator: Adobe Illustrator 16.0.0, SVG Export Plug-In . SVG Version: 6.00 Build 0)  -->
<!DOCTYPE svg PUBLIC "-//W3C//DTD SVG 1.1//EN" "http://www.w3.org/Graphics/SVG/1.1/DTD/svg11.dtd">
<svg version="1.1" id="Layer_1" xmlns="http://www.w3.org/2000/svg" xmlns:xlink="http://www.w3.org/1999/xlink" x="0px" y="0px"
	 width="463.5px" height="300px" viewBox="-15.875 -5.541 463.5 300" enable-background="new -15.875 -5.541 463.5 300"
	 xml:space="preserve">
<rect x="-15.875" y="-5.541" fill="#2B3990" width="463.5" height="300"/>
<g>
	<path fill="#F1F2F2" stroke="#F1F2F2" stroke-miterlimit="10" d="M187.075,140.877c7.371,0,13.366-4.803,13.366-10.707
		c0-5.907-5.996-10.711-13.366-10.711c-7.37,0-13.365,4.804-13.365,10.709C173.709,136.074,179.705,140.877,187.075,140.877z
		 M187.075,123.305c4.723,0,8.566,3.081,8.566,6.863c0,3.783-3.843,6.863-8.566,6.863c-4.723,0-8.565-3.079-8.565-6.861
		C178.51,126.388,182.352,123.305,187.075,123.305z"/>
	<path fill="#F1F2F2" stroke="#F1F2F2" stroke-miterlimit="10" d="M155.875,94.459v76.922v23.078h120v-23.078V94.459H155.875z
		 M160.675,98.305h110.399v51.398l-24.777-18.201c-0.47-0.344-1.089-0.515-1.729-0.504c-0.635,0.023-1.234,0.249-1.664,0.625
		l-23.506,20.628l-11.383-9.12c-0.898-0.718-2.334-0.754-3.285-0.085l-40.164,28.334h-3.892L160.675,98.305L160.675,98.305z
		 M271.074,190.613H160.675v-15.385h110.399V190.613z M171.833,171.381l34.378-24.252l24.725,19.811
		c0.938,0.752,2.455,0.752,3.394,0s0.938-1.967,0-2.719l-11.537-9.244l22.035-19.333l26.248,19.279v16.461L171.833,171.381
		L171.833,171.381z"/>
</g>
</svg>
